<svg width="10" height="10" viewBox="0 0 10 10" fill="none" xmlns="http://www.w3.org/2000/svg">
<path d="M8.80184 5.08708C8.73033 5.86087 8.43993 6.59829 7.96461 7.21306C7.48929 7.82783 6.84872 8.29452 6.11785 8.55851C5.38698 8.82251 4.59604 8.87289 3.83758 8.70377C3.07911 8.53466 2.3845 8.15303 1.83502 7.60354C1.28553 7.05406 0.903902 6.35944 0.734783 5.60098C0.565663 4.84252 0.61605 4.05158 0.880045 3.32071C1.14404 2.58984 1.61073 1.94926 2.2255 1.47395C2.84026 0.99863 3.57769 0.708227 4.35148 0.636719C3.89845 1.24962 3.68045 2.00476 3.73713 2.76481C3.79381 3.52485 4.1214 4.23931 4.66032 4.77823C5.19925 5.31716 5.91371 5.64475 6.67375 5.70143C7.4338 5.75811 8.18894 5.54011 8.80184 5.08708Z" stroke="#inherit" stroke-width="0.909164" stroke-linecap="round" stroke-linejoin="round"/>
</svg>
