<svg width="17" height="17" viewBox="0 0 17 17" fill="none" xmlns="http://www.w3.org/2000/svg">
<path d="M12.218 1.15039H4.92475C2.91078 1.15039 1.27814 2.78304 1.27814 4.79701V12.0902C1.27814 14.1042 2.91078 15.7369 4.92475 15.7369H12.218C14.232 15.7369 15.8646 14.1042 15.8646 12.0902V4.79701C15.8646 2.78304 14.232 1.15039 12.218 1.15039Z" stroke="#FF668B" stroke-width="1.45865" stroke-linecap="round" stroke-linejoin="round"/>
<path d="M11.4887 7.98413C11.5787 8.59111 11.475 9.21101 11.1924 9.75567C10.9098 10.3003 10.4627 10.742 9.91455 11.0179C9.36645 11.2938 8.74532 11.3898 8.1395 11.2923C7.53367 11.1948 6.97402 10.9088 6.54013 10.4749C6.10624 10.041 5.82021 9.48134 5.72272 8.87552C5.62524 8.2697 5.72126 7.64856 5.99714 7.10046C6.27301 6.55236 6.71469 6.1052 7.25935 5.82259C7.804 5.53998 8.42391 5.4363 9.03088 5.52631C9.65002 5.61812 10.2232 5.90662 10.6658 6.34921C11.1084 6.79179 11.3969 7.36499 11.4887 7.98413Z" stroke="#FF668B" stroke-width="1.45865" stroke-linecap="round" stroke-linejoin="round"/>
<path d="M12.5827 4.43231H12.5894" stroke="#FF668B" stroke-width="1.45865" stroke-linecap="round" stroke-linejoin="round"/>
</svg>
