<svg width="17" height="16" viewBox="0 0 17 16" fill="none" xmlns="http://www.w3.org/2000/svg">
<path d="M11.0601 5.52631C12.2207 5.52631 13.3337 5.98734 14.1543 6.80799C14.975 7.62864 15.436 8.74167 15.436 9.90225V15.0075H12.5187V9.90225C12.5187 9.51539 12.3651 9.14438 12.0915 8.87083C11.818 8.59728 11.4469 8.4436 11.0601 8.4436C10.6732 8.4436 10.3022 8.59728 10.0287 8.87083C9.75512 9.14438 9.60144 9.51539 9.60144 9.90225V15.0075H6.68414V9.90225C6.68414 8.74167 7.14518 7.62864 7.96583 6.80799C8.78647 5.98734 9.89951 5.52631 11.0601 5.52631Z" stroke="#FF668B" stroke-width="1.45865" stroke-linecap="round" stroke-linejoin="round"/>
<path d="M3.7669 6.25568H0.849609V15.0076H3.7669V6.25568Z" stroke="#FF668B" stroke-width="1.45865" stroke-linecap="round" stroke-linejoin="round"/>
<path d="M2.30826 4.06768C3.11384 4.06768 3.7669 3.41463 3.7669 2.60904C3.7669 1.80345 3.11384 1.15039 2.30826 1.15039C1.50267 1.15039 0.849609 1.80345 0.849609 2.60904C0.849609 3.41463 1.50267 4.06768 2.30826 4.06768Z" stroke="#FF668B" stroke-width="1.45865" stroke-linecap="round" stroke-linejoin="round"/>
</svg>
