<svg width="190" height="136" viewBox="0 0 190 136" fill="none" xmlns="http://www.w3.org/2000/svg">
<path d="M97.7971 32.886C100.078 32.886 102.253 34.2285 103.903 36.6243C105.549 39.0156 106.6 42.3749 106.6 46.135C106.6 49.8951 105.549 53.2544 103.903 55.6458C102.253 58.0416 100.078 59.384 97.7971 59.384C95.5166 59.384 93.3409 58.0415 91.6917 55.6458C90.0456 53.2544 88.9944 49.895 88.9944 46.135C88.9944 42.375 90.0456 39.0156 91.6917 36.6243C93.3409 34.2285 95.5166 32.886 97.7971 32.886Z" stroke="#0D0809" stroke-width="2.03939"/>
<path d="M92.3778 32.886C94.6583 32.886 96.834 34.2285 98.4833 36.6243C100.129 39.0156 101.181 42.3749 101.181 46.135C101.181 49.8951 100.129 53.2544 98.4833 55.6458C96.834 58.0416 94.6583 59.384 92.3778 59.384C90.0973 59.384 87.9216 58.0415 86.2723 55.6458C84.6263 53.2544 83.5751 49.895 83.5751 46.135C83.5751 42.375 84.6263 39.0156 86.2723 36.6243C87.9216 34.2285 90.0973 32.886 92.3778 32.886Z" stroke="#0D0809" stroke-width="2.03939"/>
<path d="M20.5208 75.2415V88.6008C20.8136 88.8165 21.091 88.9706 21.3529 89.0631C21.6303 89.1555 21.8922 89.2017 22.1388 89.2017C22.7397 89.2017 23.2405 88.986 23.6411 88.5546C24.0571 88.1077 24.3961 87.5376 24.6581 86.8442C24.92 86.1354 25.1049 85.3496 25.2128 84.4867C25.3361 83.6238 25.3977 82.7763 25.3977 81.9443C25.3977 80.5112 25.2975 79.2863 25.0972 78.2693C24.8969 77.2523 24.5733 76.4202 24.1265 75.7731C23.6796 75.1259 23.1018 74.6559 22.393 74.3632C21.6842 74.055 20.829 73.9009 19.8275 73.9009C19.1341 73.9009 18.4715 74.0088 17.8397 74.2245C17.208 74.4402 16.6533 74.7561 16.1756 75.1721C15.6979 75.5728 15.3127 76.0735 15.0199 76.6745C14.7426 77.26 14.6039 77.9303 14.6039 78.6853C14.6039 79.1322 14.6501 79.5097 14.7426 79.8179C14.8504 80.126 14.966 80.3803 15.0893 80.5806C15.228 80.7809 15.3666 80.9427 15.5053 81.066C15.6594 81.1738 15.7827 81.2586 15.8751 81.3202C14.9352 81.3202 14.1956 81.1045 13.6563 80.673C13.117 80.2416 12.8473 79.5174 12.8473 78.5004C12.8473 77.7916 13.0322 77.1059 13.402 76.4434C13.7718 75.7808 14.2803 75.203 14.9275 74.7099C15.5901 74.2168 16.3605 73.8239 17.2388 73.5311C18.1325 73.2229 19.1032 73.0688 20.151 73.0688C21.6303 73.0688 22.8784 73.3231 23.8953 73.8316C24.9123 74.3247 25.7367 74.9872 26.3684 75.8193C27.0002 76.636 27.4548 77.5759 27.7321 78.6391C28.0095 79.7023 28.1481 80.7963 28.1481 81.9211C28.1481 83.0152 28.0326 84.0861 27.8014 85.1339C27.5857 86.1816 27.2776 87.1216 26.8769 87.9536C26.4917 88.7703 26.0295 89.4329 25.4901 89.9414C24.9508 90.4499 24.3576 90.7041 23.7104 90.7041C23.2482 90.7041 22.7551 90.5962 22.2312 90.3805C21.7073 90.1648 21.1372 89.8258 20.5208 89.3635V90.4036H18.0246V75.5882L20.5208 75.2415ZM38.3197 78.8471V86.7055C38.3197 86.8596 38.3274 87.0522 38.3428 87.2834C38.3582 87.5145 38.3967 87.7456 38.4584 87.9768C38.5354 88.1925 38.6433 88.3851 38.7819 88.5546C38.9206 88.7087 39.1132 88.7857 39.3598 88.7857C40.1148 88.7857 40.6695 87.9459 41.0239 86.2664H41.8791C41.7096 87.2371 41.4939 88.0076 41.2319 88.5777C40.97 89.1324 40.6926 89.5561 40.3999 89.8489C40.1071 90.1417 39.8066 90.3266 39.4984 90.4036C39.1903 90.4961 38.9129 90.5423 38.6664 90.5423C38.312 90.5423 38.0038 90.4807 37.7419 90.3574C37.4953 90.2341 37.2796 90.0723 37.0947 89.872C36.9252 89.6717 36.7865 89.4406 36.6787 89.1786C36.5708 88.9167 36.4861 88.6393 36.4244 88.3466C36.1933 88.9475 35.8158 89.4637 35.2919 89.8951C34.7834 90.3266 34.1593 90.5423 33.4197 90.5423C32.9575 90.5423 32.4875 90.4499 32.0098 90.2649C31.5476 90.08 31.1238 89.7796 30.7386 89.3635C30.3688 88.9321 30.0606 88.3851 29.8141 87.7225C29.583 87.0445 29.4674 86.2202 29.4674 85.2494C29.4674 84.5406 29.5444 83.801 29.6985 83.0306C29.868 82.2601 30.13 81.559 30.4844 80.9273C30.8388 80.2955 31.2933 79.7716 31.848 79.3556C32.4027 78.9396 33.073 78.7315 33.8589 78.7315C34.0438 78.7315 34.2364 78.7547 34.4367 78.8009C34.6524 78.8317 34.8527 78.8933 35.0376 78.9858C35.2379 79.0782 35.4229 79.2092 35.5923 79.3787C35.7618 79.5328 35.9005 79.7254 36.0084 79.9565V78.8471H38.3197ZM33.9975 88.7857C34.2287 88.7857 34.4598 88.7241 34.6909 88.6008C34.9375 88.4621 35.1532 88.2849 35.3381 88.0692C35.5384 87.8381 35.7002 87.5684 35.8235 87.2603C35.9467 86.9521 36.0084 86.6208 36.0084 86.2664V80.9966C35.9005 80.7501 35.731 80.5267 35.4999 80.3263C35.2842 80.1106 34.9991 80.0028 34.6447 80.0028C34.1516 80.0028 33.7279 80.1723 33.3735 80.5112C33.0191 80.8348 32.734 81.2509 32.5183 81.7594C32.3026 82.2524 32.1408 82.7994 32.0329 83.4004C31.9405 83.9859 31.8943 84.5483 31.8943 85.0876C31.8943 86.4128 32.0715 87.3604 32.4259 87.9305C32.7957 88.5007 33.3196 88.7857 33.9975 88.7857ZM43.3202 78.8471V80.6037C43.5514 80.1877 43.7825 79.8564 44.0136 79.6098C44.2602 79.3479 44.5067 79.1553 44.7532 79.032C44.9998 78.9087 45.2309 78.8317 45.4466 78.8009C45.6778 78.7547 45.8935 78.7315 46.0938 78.7315C46.7872 78.7315 47.3419 78.8625 47.7579 79.1245C48.1894 79.3864 48.513 79.7254 48.7287 80.1414C48.9444 80.5421 49.0831 80.9889 49.1447 81.482C49.2218 81.9597 49.2603 82.4219 49.2603 82.8688C49.2603 83.1461 49.2526 83.4543 49.2372 83.7933C49.2218 84.1169 49.2063 84.4559 49.1909 84.8103C49.1755 85.1493 49.1601 85.496 49.1447 85.8504C49.1293 86.1893 49.1216 86.5052 49.1216 86.798C49.1216 86.9213 49.1293 87.0985 49.1447 87.3296C49.1601 87.5453 49.1986 87.761 49.2603 87.9768C49.3219 88.1925 49.4221 88.3851 49.5607 88.5546C49.6994 88.7087 49.8997 88.7857 50.1617 88.7857C50.5161 88.7857 50.832 88.5854 51.1093 88.1848C51.4021 87.7841 51.6409 87.1447 51.8258 86.2664H52.681C52.5115 87.2371 52.2958 88.0076 52.0338 88.5777C51.7719 89.1324 51.4945 89.5561 51.2018 89.8489C50.909 90.1417 50.6162 90.3266 50.3235 90.4036C50.0307 90.4961 49.7611 90.5423 49.5145 90.5423C49.0214 90.5423 48.6054 90.4499 48.2664 90.2649C47.9274 90.0646 47.6501 89.8027 47.4343 89.4791C47.2186 89.1555 47.0568 88.778 46.949 88.3466C46.8565 87.9151 46.8103 87.4683 46.8103 87.006C46.8103 86.8673 46.8103 86.6131 46.8103 86.2433C46.8257 85.8581 46.8334 85.4497 46.8334 85.0183C46.8488 84.5868 46.8565 84.1785 46.8565 83.7933C46.8719 83.4081 46.8796 83.1384 46.8796 82.9843C46.8796 82.4913 46.8411 82.0829 46.7641 81.7594C46.687 81.4358 46.5792 81.1815 46.4405 80.9966C46.3018 80.8117 46.14 80.6807 45.9551 80.6037C45.7856 80.5267 45.6007 80.4881 45.4004 80.4881C44.9227 80.4881 44.5067 80.6807 44.1523 81.066C43.8133 81.4512 43.5359 82.0983 43.3202 83.0075V90.4036H41.0089V78.8471H43.3202ZM54.1324 78.8471V86.7055C54.1324 86.8596 54.1401 87.0522 54.1555 87.2834C54.171 87.5145 54.2095 87.7456 54.2711 87.9768C54.3482 88.1925 54.456 88.3851 54.5947 88.5546C54.7334 88.7087 54.926 88.7857 55.1725 88.7857C55.9275 88.7857 56.4823 87.9459 56.8367 86.2664H57.6918C57.5223 87.2371 57.3066 88.0076 57.0447 88.5777C56.7827 89.1324 56.5054 89.5561 56.2126 89.8489C55.9198 90.1417 55.6194 90.3266 55.3112 90.4036C55.003 90.4961 54.7257 90.5423 54.4791 90.5423C53.9398 90.5423 53.5007 90.4421 53.1617 90.2418C52.8227 90.0261 52.553 89.7565 52.3527 89.4329C52.1524 89.1093 52.0137 88.7472 51.9367 88.3466C51.8596 87.9459 51.8211 87.5607 51.8211 87.1909V78.8471H54.1324ZM51.4051 75.5188C51.4051 75.1028 51.5515 74.7407 51.8442 74.4325C52.137 74.1243 52.4991 73.9703 52.9306 73.9703C53.3466 73.9703 53.7087 74.1243 54.0169 74.4325C54.325 74.7407 54.4791 75.1028 54.4791 75.5188C54.4791 75.9503 54.325 76.3124 54.0169 76.6051C53.7087 76.8979 53.3466 77.0443 52.9306 77.0443C52.4991 77.0443 52.137 76.8979 51.8442 76.6051C51.5515 76.3124 51.4051 75.9503 51.4051 75.5188ZM64.0432 81.7362C64.0432 82.8148 63.5964 83.7163 62.7027 84.4405C61.8244 85.1647 60.5994 85.6115 59.0277 85.781C59.0893 86.3974 59.1972 86.8981 59.3513 87.2834C59.5208 87.6686 59.7211 87.9768 59.9522 88.2079C60.1834 88.4236 60.4453 88.5777 60.7381 88.6701C61.0462 88.7472 61.3621 88.7857 61.6857 88.7857C62.4253 88.7857 63.1187 88.5931 63.7659 88.2079C64.413 87.8227 64.9369 87.1755 65.3376 86.2664H66.0772C65.8769 86.8365 65.5995 87.3835 65.2451 87.9074C64.8907 88.4159 64.4747 88.8705 63.997 89.2711C63.5193 89.6563 63.0031 89.9645 62.4484 90.1956C61.8937 90.4267 61.3236 90.5423 60.7381 90.5423C60.1988 90.5423 59.6749 90.4499 59.1664 90.2649C58.6733 90.08 58.2342 89.7796 57.8489 89.3635C57.4637 88.9321 57.1478 88.3774 56.9013 87.6994C56.6702 87.0214 56.5546 86.1893 56.5546 85.2032C56.5546 84.556 56.6239 83.8549 56.7626 83.0999C56.9167 82.3449 57.1632 81.6438 57.5022 80.9966C57.8566 80.3495 58.3112 79.8102 58.8659 79.3787C59.436 78.9473 60.1371 78.7315 60.9692 78.7315C61.3544 78.7315 61.7242 78.7778 62.0786 78.8702C62.4484 78.9473 62.7797 79.1014 63.0725 79.3325C63.3652 79.5482 63.5964 79.8487 63.7659 80.2339C63.9508 80.6191 64.0432 81.1199 64.0432 81.7362ZM59.0046 84.8796C60.0986 84.7101 60.9615 84.3249 61.5932 83.724C62.2404 83.123 62.564 82.3834 62.564 81.5051C62.564 80.9196 62.4638 80.5035 62.2635 80.257C62.0632 79.9951 61.7781 79.8641 61.4083 79.8641C61.0077 79.8641 60.6533 80.0182 60.3451 80.3263C60.0524 80.6345 59.8058 81.0351 59.6055 81.5282C59.4052 82.0059 59.2511 82.5452 59.1433 83.1461C59.0508 83.7317 59.0046 84.3095 59.0046 84.8796ZM67.6527 74.2245V86.7055C67.6527 86.8596 67.6604 87.0522 67.6758 87.2834C67.6912 87.5145 67.7297 87.7456 67.7913 87.9768C67.8684 88.1925 67.9762 88.3851 68.1149 88.5546C68.2536 88.7087 68.4462 88.7857 68.6927 88.7857C69.4478 88.7857 70.0025 87.9459 70.3569 86.2664H71.2121C71.0426 87.2371 70.8268 88.0076 70.5649 88.5777C70.3029 89.1324 70.0256 89.5561 69.7328 89.8489C69.4401 90.1417 69.1396 90.3266 68.8314 90.4036C68.5232 90.4961 68.2459 90.5423 67.9993 90.5423C67.46 90.5423 67.0209 90.4421 66.6819 90.2418C66.3429 90.0261 66.0733 89.7565 65.8729 89.4329C65.6726 89.1093 65.534 88.7472 65.4569 88.3466C65.3799 87.9459 65.3413 87.5607 65.3413 87.1909V74.5481L67.6527 74.2245ZM78.8352 78.8471V86.7055C78.8352 86.8904 78.8429 87.1062 78.8583 87.3527C78.8737 87.5838 78.9123 87.8073 78.9739 88.023C79.0509 88.2387 79.1588 88.4236 79.2975 88.5777C79.4516 88.7164 79.6673 88.7857 79.9446 88.7857C80.0679 88.7857 80.1989 88.7703 80.3376 88.7395C80.4916 88.7087 80.6149 88.6779 80.7074 88.647C80.7228 88.7241 80.7305 88.7934 80.7305 88.8551C80.7459 88.9167 80.7536 88.986 80.7536 89.0631C80.7536 89.5253 80.5764 89.8874 80.222 90.1494C79.8676 90.4113 79.467 90.5423 79.0201 90.5423C78.5424 90.5423 78.111 90.3805 77.7258 90.0569C77.3406 89.7179 77.0786 89.1555 76.9399 88.3697C76.7088 88.9706 76.3313 89.4868 75.8074 89.9183C75.2835 90.3343 74.6518 90.5423 73.9121 90.5423C73.4499 90.5423 72.9799 90.4499 72.5022 90.2649C72.04 90.0646 71.6239 89.7565 71.2541 89.3404C70.8843 88.9244 70.5762 88.3851 70.3296 87.7225C70.0985 87.0599 69.9829 86.2587 69.9829 85.3188C69.9829 84.5945 70.06 83.8472 70.214 83.0768C70.3835 82.291 70.6378 81.5822 70.9768 80.9504C71.3312 80.3032 71.7857 79.7716 72.3404 79.3556C72.8952 78.9396 73.5577 78.7315 74.3282 78.7315C74.7288 78.7315 75.1371 78.8163 75.5532 78.9858C75.9846 79.1553 76.3082 79.4789 76.5239 79.9565V78.8471H78.8352ZM74.3975 88.7857C74.6903 88.7857 74.9676 88.7164 75.2296 88.5777C75.4915 88.439 75.715 88.2541 75.8999 88.023C76.1002 87.7919 76.2543 87.5299 76.3621 87.2371C76.47 86.929 76.5239 86.6054 76.5239 86.2664V80.9966C76.416 80.7347 76.2543 80.5035 76.0385 80.3032C75.8228 80.1029 75.5146 80.0028 75.114 80.0028C74.6209 80.0028 74.2049 80.1723 73.8659 80.5112C73.5269 80.8348 73.2496 81.2509 73.0338 81.7594C72.8181 82.2678 72.6563 82.838 72.5485 83.4697C72.456 84.0861 72.4098 84.6793 72.4098 85.2494C72.4098 86.4975 72.6024 87.3989 72.9876 87.9536C73.3728 88.5084 73.8428 88.7857 74.3975 88.7857ZM95.3348 74.2245V86.7055C95.3348 86.8596 95.3425 87.0522 95.358 87.2834C95.3734 87.5145 95.4119 87.7456 95.4735 87.9768C95.5506 88.1925 95.6584 88.3851 95.7971 88.5546C95.9358 88.7087 96.1284 88.7857 96.3749 88.7857C97.13 88.7857 97.6847 87.9459 98.0391 86.2664H98.8943C98.7248 87.2371 98.509 88.0076 98.2471 88.5777C97.9851 89.1324 97.7078 89.5561 97.415 89.8489C97.1223 90.1417 96.8218 90.3266 96.5136 90.4036C96.2054 90.4961 95.9281 90.5423 95.6815 90.5423C95.3271 90.5423 95.019 90.4807 94.757 90.3574C94.5105 90.2341 94.2948 90.0723 94.1099 89.872C93.9404 89.6717 93.8017 89.4406 93.6938 89.1786C93.586 88.9167 93.5012 88.6393 93.4396 88.3466C93.2084 88.9475 92.8309 89.4637 92.307 89.8951C91.7986 90.3266 91.1745 90.5423 90.4349 90.5423C89.9726 90.5423 89.5027 90.4499 89.025 90.2649C88.5627 90.08 88.139 89.7796 87.7538 89.3635C87.384 88.9321 87.0758 88.3851 86.8292 87.7225C86.5981 87.0445 86.4826 86.2202 86.4826 85.2494C86.4826 84.5406 86.5596 83.801 86.7137 83.0306C86.8832 82.2601 87.1451 81.559 87.4995 80.9273C87.8539 80.2955 88.3085 79.7716 88.8632 79.3556C89.4179 78.9396 90.0882 78.7315 90.874 78.7315C91.0589 78.7315 91.2515 78.7547 91.4519 78.8009C91.6676 78.8317 91.8679 78.8933 92.0528 78.9858C92.2531 79.0782 92.438 79.2092 92.6075 79.3787C92.777 79.5328 92.9157 79.7254 93.0235 79.9565V74.5481L95.3348 74.2245ZM91.0127 88.7857C91.2438 88.7857 91.475 88.7241 91.7061 88.6008C91.9526 88.4621 92.1684 88.2849 92.3533 88.0692C92.5536 87.8381 92.7154 87.5684 92.8386 87.2603C92.9619 86.9521 93.0235 86.6208 93.0235 86.2664V80.9966C92.9157 80.7501 92.7462 80.5267 92.5151 80.3263C92.2993 80.1106 92.0143 80.0028 91.6599 80.0028C91.1668 80.0028 90.7431 80.1723 90.3887 80.5112C90.0343 80.8348 89.7492 81.2509 89.5335 81.7594C89.3178 82.2524 89.156 82.7994 89.0481 83.4004C88.9556 83.9859 88.9094 84.5483 88.9094 85.0876C88.9094 86.4128 89.0866 87.3604 89.441 87.9305C89.8108 88.5007 90.3347 88.7857 91.0127 88.7857ZM105.258 81.7362C105.258 82.8148 104.812 83.7163 103.918 84.4405C103.04 85.1647 101.815 85.6115 100.243 85.781C100.305 86.3974 100.412 86.8981 100.567 87.2834C100.736 87.6686 100.936 87.9768 101.167 88.2079C101.399 88.4236 101.661 88.5777 101.953 88.6701C102.261 88.7472 102.577 88.7857 102.901 88.7857C103.394 88.7857 103.856 88.701 104.288 88.5315C104.735 88.362 105.104 88.0692 105.397 87.6532C105.413 87.761 105.42 87.8689 105.42 87.9768C105.436 88.0692 105.443 88.154 105.443 88.231C105.443 88.5854 105.351 88.9013 105.166 89.1786C104.997 89.456 104.758 89.7025 104.45 89.9183C104.157 90.1186 103.81 90.2727 103.409 90.3805C103.024 90.4884 102.616 90.5423 102.184 90.5423C101.661 90.5423 101.137 90.4499 100.613 90.2649C100.089 90.0646 99.6112 89.7565 99.1797 89.3404C98.7637 88.909 98.4247 88.3543 98.1628 87.6763C97.9008 86.9983 97.7698 86.1739 97.7698 85.2032C97.7698 84.556 97.8392 83.8549 97.9779 83.0999C98.1319 82.3449 98.3785 81.6438 98.7175 80.9966C99.0719 80.3495 99.5264 79.8102 100.081 79.3787C100.651 78.9473 101.352 78.7315 102.184 78.7315C102.57 78.7315 102.939 78.7778 103.294 78.8702C103.664 78.9473 103.995 79.1014 104.288 79.3325C104.58 79.5482 104.812 79.8487 104.981 80.2339C105.166 80.6191 105.258 81.1199 105.258 81.7362ZM100.22 84.8796C101.314 84.7101 102.177 84.3249 102.808 83.724C103.456 83.123 103.779 82.3834 103.779 81.5051C103.779 80.9196 103.679 80.5035 103.479 80.257C103.278 79.9951 102.993 79.8641 102.624 79.8641C102.223 79.8641 101.869 80.0182 101.56 80.3263C101.268 80.6345 101.021 81.0351 100.821 81.5282C100.62 82.0059 100.466 82.5452 100.358 83.1461C100.266 83.7317 100.22 84.3095 100.22 84.8796ZM114.33 74.2245V86.7055C114.33 86.8596 114.338 87.0522 114.353 87.2834C114.369 87.5145 114.407 87.7456 114.469 87.9768C114.546 88.1925 114.654 88.3851 114.792 88.5546C114.931 88.7087 115.124 88.7857 115.37 88.7857C116.125 88.7857 116.68 87.9459 117.034 86.2664H117.89C117.72 87.2371 117.504 88.0076 117.242 88.5777C116.98 89.1324 116.703 89.5561 116.41 89.8489C116.118 90.1417 115.817 90.3266 115.509 90.4036C115.201 90.4961 114.923 90.5423 114.677 90.5423C114.138 90.5423 113.698 90.4421 113.359 90.2418C113.02 90.0261 112.751 89.7565 112.55 89.4329C112.35 89.1093 112.211 88.7472 112.134 88.3466C112.057 87.9459 112.019 87.5607 112.019 87.1909V74.5481L114.33 74.2245ZM125.513 78.8471V86.7055C125.513 86.8904 125.52 87.1062 125.536 87.3527C125.551 87.5838 125.59 87.8073 125.651 88.023C125.728 88.2387 125.836 88.4236 125.975 88.5777C126.129 88.7164 126.345 88.7857 126.622 88.7857C126.745 88.7857 126.876 88.7703 127.015 88.7395C127.169 88.7087 127.292 88.6779 127.385 88.647C127.4 88.7241 127.408 88.7934 127.408 88.8551C127.423 88.9167 127.431 88.986 127.431 89.0631C127.431 89.5253 127.254 89.8874 126.899 90.1494C126.545 90.4113 126.144 90.5423 125.698 90.5423C125.22 90.5423 124.788 90.3805 124.403 90.0569C124.018 89.7179 123.756 89.1555 123.617 88.3697C123.386 88.9706 123.009 89.4868 122.485 89.9183C121.961 90.3343 121.329 90.5423 120.59 90.5423C120.127 90.5423 119.657 90.4499 119.18 90.2649C118.717 90.0646 118.301 89.7565 117.932 89.3404C117.562 88.9244 117.254 88.3851 117.007 87.7225C116.776 87.0599 116.66 86.2587 116.66 85.3188C116.66 84.5945 116.737 83.8472 116.892 83.0768C117.061 82.291 117.315 81.5822 117.654 80.9504C118.009 80.3032 118.463 79.7716 119.018 79.3556C119.573 78.9396 120.235 78.7315 121.006 78.7315C121.406 78.7315 121.815 78.8163 122.231 78.9858C122.662 79.1553 122.986 79.4789 123.201 79.9565V78.8471H125.513ZM121.075 88.7857C121.368 88.7857 121.645 88.7164 121.907 88.5777C122.169 88.439 122.392 88.2541 122.577 88.023C122.778 87.7919 122.932 87.5299 123.04 87.2371C123.147 86.929 123.201 86.6054 123.201 86.2664V80.9966C123.094 80.7347 122.932 80.5035 122.716 80.3032C122.5 80.1029 122.192 80.0028 121.792 80.0028C121.298 80.0028 120.882 80.1723 120.543 80.5112C120.204 80.8348 119.927 81.2509 119.711 81.7594C119.496 82.2678 119.334 82.838 119.226 83.4697C119.134 84.0861 119.087 84.6793 119.087 85.2494C119.087 86.4975 119.28 87.3989 119.665 87.9536C120.05 88.5084 120.52 88.7857 121.075 88.7857ZM142.891 88.5546L146.103 73.1844H147.421L143.538 90.4036H140.972L137.528 74.3863C136.912 74.3863 136.396 74.4942 135.98 74.7099C135.579 74.9102 135.256 75.1875 135.009 75.5419C134.778 75.8809 134.608 76.2739 134.501 76.7207C134.408 77.1522 134.362 77.599 134.362 78.0613C134.362 78.7238 134.454 79.3171 134.639 79.841C134.824 80.3649 135.094 80.8502 135.448 81.2971C135.14 81.2971 134.832 81.2509 134.524 81.1584C134.216 81.066 133.938 80.9042 133.692 80.673C133.445 80.4419 133.245 80.1337 133.091 79.7485C132.937 79.3479 132.86 78.8471 132.86 78.2462C132.86 77.5528 132.991 76.8902 133.252 76.2584C133.514 75.6267 133.9 75.0797 134.408 74.6174C134.917 74.1398 135.541 73.7622 136.28 73.4849C137.02 73.2075 137.867 73.0688 138.823 73.0688C138.992 73.0688 139.154 73.0766 139.308 73.092C139.478 73.1074 139.647 73.1305 139.817 73.1613L142.891 88.5546ZM154.78 81.7362C154.78 82.8148 154.333 83.7163 153.439 84.4405C152.561 85.1647 151.336 85.6115 149.764 85.781C149.826 86.3974 149.934 86.8981 150.088 87.2834C150.257 87.6686 150.458 87.9768 150.689 88.2079C150.92 88.4236 151.182 88.5777 151.475 88.6701C151.783 88.7472 152.099 88.7857 152.422 88.7857C153.162 88.7857 153.855 88.5931 154.503 88.2079C155.15 87.8227 155.674 87.1755 156.074 86.2664H156.814C156.614 86.8365 156.336 87.3835 155.982 87.9074C155.627 88.4159 155.211 88.8705 154.734 89.2711C154.256 89.6563 153.74 89.9645 153.185 90.1956C152.63 90.4267 152.06 90.5423 151.475 90.5423C150.935 90.5423 150.412 90.4499 149.903 90.2649C149.41 90.08 148.971 89.7796 148.586 89.3635C148.2 88.9321 147.885 88.3774 147.638 87.6994C147.407 87.0214 147.291 86.1893 147.291 85.2032C147.291 84.556 147.361 83.8549 147.499 83.0999C147.653 82.3449 147.9 81.6438 148.239 80.9966C148.593 80.3495 149.048 79.8102 149.603 79.3787C150.173 78.9473 150.874 78.7315 151.706 78.7315C152.091 78.7315 152.461 78.7778 152.815 78.8702C153.185 78.9473 153.516 79.1014 153.809 79.3325C154.102 79.5482 154.333 79.8487 154.503 80.2339C154.687 80.6191 154.78 81.1199 154.78 81.7362ZM149.741 84.8796C150.835 84.7101 151.698 84.3249 152.33 83.724C152.977 83.123 153.301 82.3834 153.301 81.5051C153.301 80.9196 153.201 80.5035 153 80.257C152.8 79.9951 152.515 79.8641 152.145 79.8641C151.744 79.8641 151.39 80.0182 151.082 80.3263C150.789 80.6345 150.543 81.0351 150.342 81.5282C150.142 82.0059 149.988 82.5452 149.88 83.1461C149.788 83.7317 149.741 84.3095 149.741 84.8796ZM164.584 78.8471V89.9183C164.969 89.795 165.308 89.6563 165.601 89.5022C165.909 89.3481 166.171 89.1401 166.386 88.8782C166.618 88.6162 166.803 88.2772 166.941 87.8612C167.095 87.4452 167.211 86.9136 167.288 86.2664H168.143C168.02 87.0831 167.858 87.7533 167.658 88.2772C167.473 88.7857 167.234 89.2017 166.941 89.5253C166.664 89.8335 166.325 90.08 165.924 90.2649C165.539 90.4344 165.092 90.5962 164.584 90.7503V92.2296C164.584 92.9538 164.507 93.5624 164.353 94.0555C164.198 94.564 163.983 94.9723 163.705 95.2805C163.443 95.6041 163.135 95.8352 162.781 95.9739C162.442 96.1125 162.08 96.1819 161.695 96.1819C160.924 96.1819 160.323 95.9585 159.892 95.5116C159.46 95.0802 159.245 94.5486 159.245 93.9168C159.245 93.5162 159.329 93.1541 159.499 92.8305C159.684 92.5069 159.915 92.2064 160.192 91.9291C160.485 91.6671 160.809 91.4283 161.163 91.2126C161.533 91.0123 161.903 90.8351 162.272 90.681V88.6933C161.98 89.0939 161.61 89.4252 161.163 89.6871C160.731 89.9491 160.238 90.08 159.684 90.08C159.221 90.08 158.751 89.9953 158.274 89.8258C157.812 89.6409 157.388 89.3481 157.003 88.9475C156.633 88.5469 156.325 88.023 156.078 87.3758C155.847 86.7287 155.731 85.9428 155.731 85.0183C155.731 84.3249 155.808 83.6084 155.963 82.8688C156.132 82.1292 156.394 81.4589 156.748 80.8579C157.103 80.2416 157.557 79.7331 158.112 79.3325C158.667 78.9319 159.337 78.7315 160.123 78.7315C160.308 78.7315 160.5 78.7547 160.701 78.8009C160.916 78.8317 161.117 78.8933 161.302 78.9858C161.502 79.0782 161.687 79.2092 161.856 79.3787C162.026 79.5328 162.165 79.7254 162.272 79.9565V78.8471H164.584ZM160.262 88.3235C160.493 88.3235 160.724 88.2618 160.955 88.1385C161.201 88.0153 161.417 87.8458 161.602 87.6301C161.802 87.4143 161.964 87.1601 162.087 86.8673C162.211 86.5746 162.272 86.2587 162.272 85.9197V80.9966C162.165 80.7501 161.995 80.5267 161.764 80.3263C161.548 80.1106 161.263 80.0028 160.909 80.0028C160.416 80.0028 159.992 80.1646 159.637 80.4881C159.283 80.7963 158.998 81.1892 158.782 81.6669C158.567 82.1446 158.405 82.6685 158.297 83.2386C158.204 83.8087 158.158 84.348 158.158 84.8565C158.158 86.1046 158.335 86.9983 158.69 87.5376C159.06 88.0615 159.584 88.3235 160.262 88.3235ZM161.255 94.98C161.671 94.98 161.941 94.8182 162.064 94.4946C162.203 94.1865 162.272 93.7627 162.272 93.2234V91.6055C161.502 91.9599 160.955 92.3066 160.631 92.6456C160.308 93 160.146 93.3929 160.146 93.8244C160.146 94.1788 160.238 94.4561 160.423 94.6564C160.624 94.8721 160.901 94.98 161.255 94.98ZM175.802 78.8471V86.7055C175.802 86.8904 175.809 87.1062 175.825 87.3527C175.84 87.5838 175.879 87.8073 175.94 88.023C176.017 88.2387 176.125 88.4236 176.264 88.5777C176.418 88.7164 176.634 88.7857 176.911 88.7857C177.034 88.7857 177.165 88.7703 177.304 88.7395C177.458 88.7087 177.581 88.6779 177.674 88.647C177.689 88.7241 177.697 88.7934 177.697 88.8551C177.712 88.9167 177.72 88.986 177.72 89.0631C177.72 89.5253 177.543 89.8874 177.188 90.1494C176.834 90.4113 176.433 90.5423 175.986 90.5423C175.509 90.5423 175.077 90.3805 174.692 90.0569C174.307 89.7179 174.045 89.1555 173.906 88.3697C173.675 88.9706 173.298 89.4868 172.774 89.9183C172.25 90.3343 171.618 90.5423 170.879 90.5423C170.416 90.5423 169.946 90.4499 169.469 90.2649C169.006 90.0646 168.59 89.7565 168.221 89.3404C167.851 88.9244 167.543 88.3851 167.296 87.7225C167.065 87.0599 166.949 86.2587 166.949 85.3188C166.949 84.5945 167.026 83.8472 167.18 83.0768C167.35 82.291 167.604 81.5822 167.943 80.9504C168.298 80.3032 168.752 79.7716 169.307 79.3556C169.862 78.9396 170.524 78.7315 171.295 78.7315C171.695 78.7315 172.104 78.8163 172.52 78.9858C172.951 79.1553 173.275 79.4789 173.49 79.9565V78.8471H175.802ZM171.364 88.7857C171.657 88.7857 171.934 88.7164 172.196 88.5777C172.458 88.439 172.681 88.2541 172.866 88.023C173.067 87.7919 173.221 87.5299 173.329 87.2371C173.436 86.929 173.49 86.6054 173.49 86.2664V80.9966C173.382 80.7347 173.221 80.5035 173.005 80.3032C172.789 80.1029 172.481 80.0028 172.08 80.0028C171.587 80.0028 171.171 80.1723 170.832 80.5112C170.493 80.8348 170.216 81.2509 170 81.7594C169.785 82.2678 169.623 82.838 169.515 83.4697C169.422 84.0861 169.376 84.6793 169.376 85.2494C169.376 86.4975 169.569 87.3989 169.954 87.9536C170.339 88.5084 170.809 88.7857 171.364 88.7857Z" fill="#FF668B"/>
</svg>
