<svg width="9" height="9" viewBox="0 0 9 9" fill="none" xmlns="http://www.w3.org/2000/svg">
<g clip-path="url(#clip0_13_880)">
<path d="M7.65768 4.03593C7.6588 4.46405 7.55877 4.88638 7.36575 5.26852C7.13689 5.72644 6.78506 6.1116 6.34966 6.38086C5.91426 6.65012 5.4125 6.79284 4.90057 6.79304C4.47245 6.79416 4.05012 6.69413 3.66798 6.50111L1.81909 7.11741L2.43539 5.26852C2.24237 4.88638 2.14234 4.46405 2.14346 4.03593C2.14366 3.524 2.28638 3.02224 2.55564 2.58684C2.82489 2.15144 3.21006 1.79961 3.66798 1.57075C4.05012 1.37773 4.47245 1.2777 4.90057 1.27882H5.06275C5.73884 1.31612 6.37742 1.60148 6.85622 2.08028C7.33501 2.55908 7.62038 3.19765 7.65768 3.87375V4.03593Z" stroke="#FF668B" stroke-width="0.648732" stroke-linecap="round" stroke-linejoin="round"/>
</g>
<defs>
<clipPath id="clip0_13_880">
<rect width="7.78478" height="7.78478" fill="white" transform="translate(0.845947 0.305725)"/>
</clipPath>
</defs>
</svg>
